<svg width="80" height="80" viewBox="0 0 80 80" fill="none" xmlns="http://www.w3.org/2000/svg">
<g id="icon-2">
<circle id="Ellipse-9" cx="39.9995" cy="40" r="40" fill="#FFF2D8"/>
<g id="wallet-3">
<path id="Path_140" opacity="0.3" fill-rule="evenodd" clip-rule="evenodd" d="M26.1655 26.171H54.8285C56.8074 26.171 58.4115 27.7752 58.4115 29.754V51.254C58.4122 53.2316 56.8086 54.8363 54.8298 54.837H26.1655C25.2147 54.837 24.3029 54.4591 23.6309 53.7865C22.9589 53.1139 22.5817 52.2018 22.5825 51.251V29.754C22.5818 27.7764 24.1854 26.1717 26.1643 26.171H26.1655Z" fill="#FFBE3D"/>
<path id="Path_141" fill-rule="evenodd" clip-rule="evenodd" d="M52.1415 38.7109H28.8525C27.3685 38.7109 26.1655 39.9139 26.1655 41.3979V42.2979H34.3805C34.8558 42.298 35.3115 42.4869 35.6475 42.8229L37.4385 44.6109C39.1275 46.2996 41.8656 46.2996 43.5545 44.6109L45.3455 42.8199C45.6815 42.4839 46.1373 42.295 46.6125 42.2949H54.8275V41.3949C54.8259 39.9126 53.624 38.7115 52.1416 38.7109H52.1415Z" fill="#FFBE3D"/>
<path id="Path_142" fill-rule="evenodd" clip-rule="evenodd" d="M28.8525 29.754C27.3685 29.754 26.1655 30.957 26.1655 32.441V33.341H54.8285V32.441C54.829 30.958 53.6264 29.7545 52.1425 29.754L28.8525 29.754Z" fill="#FFBE3D"/>
</g>
</g>
</svg>
