<svg width="74" height="74" viewBox="0 0 74 74" fill="none" xmlns="http://www.w3.org/2000/svg">
<circle cx="36.9995" cy="37" r="37" fill="#EAFAF3"/>
<path fill-rule="evenodd" clip-rule="evenodd" d="M44.9785 25.8979L26.4075 44.4409C25.2581 45.5905 25.2581 47.4542 26.4075 48.6039V48.6039C27.5571 49.7533 29.4208 49.7533 30.5705 48.6039L49.1135 30.0289C50.2539 28.8872 50.2539 27.0375 49.1135 25.8959L49.1135 25.8959C47.971 24.7546 46.1198 24.7555 44.9785 25.8979V25.8979Z" fill="#2DCA8C"/>
<path opacity="0.3" fill-rule="evenodd" clip-rule="evenodd" d="M33.8167 28.1419C33.8167 30.2838 32.5261 32.2146 30.547 33.0336C28.5679 33.8526 26.2903 33.3984 24.7768 31.8828C23.2633 30.3673 22.812 28.0891 23.6337 26.1111C24.4553 24.1331 26.3878 22.8451 28.5297 22.8479C29.9328 22.8487 31.2782 23.4069 32.2697 24.3998C33.2613 25.3926 33.8177 26.7387 33.8167 28.1419ZM52.1507 46.4759C52.1517 48.6159 50.8624 50.5472 48.8841 51.3673C46.9057 52.1875 44.6282 51.7349 43.1137 50.2207C41.5992 48.7066 41.1461 46.4291 41.9658 44.4506C42.7855 42.4721 44.7165 41.1823 46.8581 41.1829C48.262 41.1822 49.6087 41.7397 50.6014 42.7325C51.5941 43.7252 52.1515 45.0719 52.1507 46.4759Z" fill="#2DCA8C"/>
</svg>
