<svg width="74" height="74" viewBox="0 0 74 74" fill="none" xmlns="http://www.w3.org/2000/svg">
<circle cx="36.9995" cy="37" r="37" fill="#FFF2D8"/>
<path opacity="0.3" fill-rule="evenodd" clip-rule="evenodd" d="M37.9995 27V24.5C37.9995 23.8096 38.2436 23.2204 38.7317 22.7322C39.2199 22.2441 39.8092 22 40.4995 22C41.1899 22 41.7791 22.2441 42.2673 22.7322C42.7554 23.2204 42.9995 23.8096 42.9995 24.5V41.5C42.9995 42.1904 42.7554 42.7796 42.2673 43.2678C41.7791 43.7559 41.1899 44 40.4995 44C39.8092 44 39.2199 43.7559 38.7317 43.2678C38.2436 42.7796 37.9995 42.1904 37.9995 41.5V27Z" fill="#FFBE3D"/>
<path opacity="0.3" fill-rule="evenodd" clip-rule="evenodd" d="M28.9995 35V32.5C28.9995 31.8096 29.2436 31.2204 29.7317 30.7322C30.2199 30.2441 30.8092 30 31.4995 30C32.1899 30 32.7791 30.2441 33.2673 30.7322C33.7554 31.2204 33.9995 31.8096 33.9995 32.5V41.5C33.9995 42.1904 33.7554 42.7796 33.2673 43.2678C32.7791 43.7559 32.1899 44 31.4995 44C30.8092 44 30.2199 43.7559 29.7317 43.2678C29.2436 42.7796 28.9995 42.1904 28.9995 41.5V35Z" fill="#FFBE3D"/>
<path fill-rule="evenodd" clip-rule="evenodd" d="M25.5297 47.473H51.1177C51.7275 47.4725 52.2913 47.7975 52.5964 48.3256C52.9015 48.8536 52.9015 49.5043 52.5964 50.0324C52.2914 50.5605 51.7276 50.8855 51.1178 50.885H23.8237C23.3702 50.885 22.9353 50.7045 22.6152 50.3832C22.2951 50.062 22.1161 49.6265 22.1177 49.173V21.879C22.118 20.9373 22.8816 20.1739 23.8236 20.1738C24.7655 20.1738 25.5292 20.9371 25.5297 21.879L25.5297 47.473Z" fill="#FFBE3D"/>
<path opacity="0.3" fill-rule="evenodd" clip-rule="evenodd" d="M45.9995 39V36.5C45.9995 35.8096 46.2436 35.2204 46.7317 34.7322C47.2199 34.2441 47.8092 34 48.4995 34C49.1899 34 49.7791 34.2441 50.2673 34.7322C50.7554 35.2204 50.9995 35.8096 50.9995 36.5V41.5C50.9995 42.1904 50.7554 42.7796 50.2673 43.2678C49.7791 43.7559 49.1899 44 48.4995 44C47.8092 44 47.2199 43.7559 46.7317 43.2678C46.2436 42.7796 45.9995 42.1904 45.9995 41.5V39Z" fill="#FFBE3D"/>
</svg>
