<svg width="74" height="74" viewBox="0 0 74 74" fill="none" xmlns="http://www.w3.org/2000/svg">
<circle cx="37" cy="37" r="37" fill="#E5F1FF"/>
<path opacity="0.3" fill-rule="evenodd" clip-rule="evenodd" d="M21 37.5C21 32.9437 22.6109 29.0546 25.8327 25.8327C29.0546 22.6109 32.9437 21 37.5 21C42.0564 21 45.9454 22.6109 49.1673 25.8327C52.3891 29.0546 54 32.9437 54 37.5C54 42.0564 52.3891 45.9454 49.1673 49.1673C45.9454 52.3891 42.0564 54 37.5 54C32.9437 54 29.0546 52.3891 25.8327 49.1673C22.6109 45.9454 21 42.0564 21 37.5Z" fill="#377DFF"/>
<path fill-rule="evenodd" clip-rule="evenodd" d="M28.0738 41.572C27.5734 40.8214 27.7762 39.8073 28.5268 39.307C29.2774 38.8066 30.2914 39.0094 30.7918 39.76C32.6818 42.595 34.9118 43.933 37.5998 43.933C40.2878 43.933 42.5178 42.595 44.4078 39.76C44.9082 39.0094 45.9223 38.8066 46.6728 39.307C47.4234 39.8073 47.6262 40.8214 47.1258 41.572C44.6598 45.272 41.4448 47.199 37.5998 47.199C33.7548 47.199 30.5398 45.271 28.0738 41.572Z" fill="#377DFF"/>
</svg>
