<svg width="80" height="80" viewBox="0 0 80 80" fill="none" xmlns="http://www.w3.org/2000/svg">
<g id="Control_Right">
<circle id="Ellipse-16" cx="40" cy="40" r="40" fill="#377DFF"/>
<path id="icon-arrow-right" fill-rule="evenodd" clip-rule="evenodd" d="M28.7051 41.9482H47.7991L39.4451 50.3002C39.1185 50.6112 38.9336 51.0426 38.9336 51.4937C38.9336 51.9447 39.1185 52.3761 39.4451 52.6872V52.6872C39.7562 53.0138 40.1876 53.1987 40.6386 53.1987C41.0897 53.1987 41.5211 53.0138 41.8321 52.6872L52.9141 41.6072C53.5976 40.8263 53.5976 39.6601 52.9141 38.8792L41.8321 27.8002C41.5211 27.4735 41.0897 27.2886 40.6386 27.2886C40.1876 27.2886 39.7562 27.4735 39.4451 27.8002V27.8002C39.1185 28.1112 38.9336 28.5426 38.9336 28.9937C38.9336 29.4447 39.1185 29.8761 39.4451 30.1872L47.7991 38.5412H28.7051C28.2468 38.515 27.799 38.6858 27.4744 39.0104C27.1497 39.335 26.979 39.7828 27.0051 40.2412V40.2412C26.9769 40.7007 27.1467 41.1504 27.4716 41.4766C27.7965 41.8028 28.2455 41.9745 28.7051 41.9482H28.7051Z" fill="white"/>
</g>
</svg>
