<svg width="74" height="74" viewBox="0 0 74 74" fill="none" xmlns="http://www.w3.org/2000/svg">
<circle cx="37" cy="37" r="37" fill="#FFF2D8"/>
<path fill-rule="evenodd" clip-rule="evenodd" d="M31.8921 47.376C31.5921 49.431 29.4971 51.024 26.9521 51.024C24.2041 51.024 21.9761 49.168 21.9761 46.878C21.9761 44.588 24.2041 42.731 26.9521 42.731C27.5135 42.7299 28.0722 42.8093 28.6111 42.967L28.6111 26.031C28.6012 25.1947 29.129 24.4464 29.9201 24.175L39.4581 21.258C40.0364 21.0854 40.6624 21.2009 41.1411 21.5683C41.6199 21.9358 41.8932 22.5107 41.8761 23.114V26.031C41.7834 26.927 41.1051 27.6516 40.2171 27.803C39.1404 28.0603 36.3761 28.6133 31.9241 29.462V46.962C31.9261 47.1006 31.9154 47.2392 31.8921 47.376L31.8921 47.376Z" fill="#FFBE3D"/>
<path opacity="0.3" fill-rule="evenodd" clip-rule="evenodd" d="M43.539 37.755V34.438C43.5242 33.8358 43.837 33.2729 44.3562 32.9674C44.8754 32.6619 45.5195 32.6619 46.0387 32.9674C46.5579 33.2729 46.8708 33.8358 46.856 34.438V37.755H50.173C51.0731 37.7771 51.7912 38.5132 51.7912 39.4135C51.7912 40.3139 51.0731 41.0499 50.173 41.072H46.856V44.389C46.8338 45.2891 46.0978 46.0073 45.1975 46.0073C44.2971 46.0073 43.5611 45.2891 43.539 44.389L43.539 41.072H40.222C39.6197 41.0868 39.0568 40.774 38.7513 40.2548C38.4458 39.7355 38.4458 39.0915 38.7513 38.5723C39.0568 38.0531 39.6197 37.7402 40.222 37.755L43.539 37.755Z" fill="#FFBE3D"/>
</svg>
