<svg width="74" height="74" viewBox="0 0 74 74" fill="none" xmlns="http://www.w3.org/2000/svg">
<circle cx="37" cy="37" r="37" fill="#EAFAF3"/>
<path opacity="0.3" fill-rule="evenodd" clip-rule="evenodd" d="M36.3431 25.0408H48.1181C49.5111 25.0414 50.64 26.1707 50.64 27.5637C50.6401 28.9567 49.5112 30.0861 48.1183 30.0868H36.3431C34.9497 30.0868 33.8201 28.9572 33.8201 27.5638C33.8201 26.1704 34.9497 25.0408 36.3431 25.0408ZM26.2511 45.2258H48.1181C49.5111 45.2264 50.64 46.3557 50.6401 47.7487C50.6401 49.1417 49.5112 50.2711 48.1183 50.2718H26.2511C24.8582 50.2712 23.7293 49.1418 23.7292 47.7488C23.7292 46.3559 24.8581 45.2264 26.251 45.2258L26.2511 45.2258ZM26.2511 35.1338H48.1181C49.5116 35.1338 50.6411 36.2634 50.6411 37.6568C50.6411 39.0502 49.5116 40.1798 48.1181 40.1798H26.2511C25.3495 40.1802 24.5162 39.6994 24.0652 38.9186C23.6143 38.1378 23.6143 37.1757 24.0653 36.3949C24.5163 35.6141 25.3496 35.1333 26.2513 35.1338L26.2511 35.1338Z" fill="#2DCA8C"/>
<path fill-rule="evenodd" clip-rule="evenodd" d="M25.122 32.4549L29.957 28.2369C30.1396 28.0772 30.2443 27.8464 30.2443 27.6039C30.2443 27.3613 30.1396 27.1305 29.957 26.9709L25.128 22.7269C24.8801 22.5062 24.5255 22.4521 24.223 22.5887C23.9205 22.7252 23.7266 23.0269 23.728 23.3589L23.728 31.8179C23.7279 32.1478 23.9207 32.4473 24.2209 32.5838C24.5212 32.7203 24.8736 32.6687 25.1221 32.4518L25.122 32.4549Z" fill="#2DCA8C"/>
</svg>
