<svg width="74" height="72" viewBox="0 0 74 72" fill="none" xmlns="http://www.w3.org/2000/svg">
<path fill-rule="evenodd" clip-rule="evenodd" d="M-0.000488281 36.0001C-0.000488281 26.0589 3.51423 17.5737 10.5437 10.5442C17.5731 3.51478 26.0584 6.10352e-05 35.9995 6.10352e-05H37.9995C47.9406 6.10352e-05 56.4259 3.51478 63.4554 10.5442C70.4848 17.5737 73.9995 26.0589 73.9995 36.0001C73.9995 45.9412 70.4848 54.4265 63.4554 61.4559C56.4259 68.4853 47.9406 72.0001 37.9995 72.0001H35.9995C26.0584 72.0001 17.5731 68.4853 10.5437 61.4559C3.51423 54.4265 -0.000488281 45.9412 -0.000488281 36.0001Z" fill="#F5F6FA"/>
<path fill-rule="evenodd" clip-rule="evenodd" d="M29.0917 50.3341C28.3978 49.8713 27.7815 49.3016 27.2657 48.6461C26.7039 47.9658 26.1824 47.2532 25.7037 46.5121C24.5799 44.868 23.6998 43.0701 23.0907 41.1741C22.3841 39.1198 22.0156 36.9644 21.9997 34.7921C21.9515 32.6972 22.459 30.627 23.4707 28.7921C24.1947 27.4681 25.2585 26.361 26.5527 25.5851C27.8068 24.8072 29.2472 24.3813 30.7227 24.3521C31.2826 24.3577 31.8397 24.4315 32.3817 24.5721C32.8077 24.6891 33.3217 24.8801 33.9527 25.1151C34.7597 25.4231 35.2007 25.6151 35.3477 25.6581C35.7214 25.8096 36.1188 25.8942 36.5217 25.9081C36.8447 25.8883 37.1634 25.824 37.4687 25.7171C37.6817 25.6441 38.0857 25.5111 38.6577 25.2621C39.2247 25.0561 39.6737 24.8801 40.0307 24.7481C40.5352 24.5862 41.0496 24.4573 41.5707 24.3621C42.1268 24.2741 42.6913 24.2509 43.2527 24.2931C44.2271 24.3586 45.1866 24.5664 46.1007 24.9101C47.5694 25.4769 48.8285 26.4812 49.7077 27.7871C49.3289 28.0226 48.9727 28.2928 48.6437 28.5941C47.9279 29.2295 47.3183 29.9753 46.8377 30.8031C46.2082 31.934 45.8826 33.2088 45.8927 34.5031C45.8815 35.9939 46.3104 37.4549 47.1257 38.7031C47.7138 39.6013 48.4803 40.3688 49.3777 40.9581C49.7604 41.2276 50.1744 41.4496 50.6107 41.6191C50.4347 42.1701 50.2407 42.7051 50.0157 43.2341C49.5102 44.4187 48.8959 45.5539 48.1807 46.6251C47.5467 47.5501 47.0477 48.2401 46.6687 48.6951C46.1724 49.3128 45.589 49.8551 44.9367 50.3051C44.3044 50.7234 43.5629 50.946 42.8047 50.9451C42.292 50.9659 41.7793 50.9031 41.2867 50.7591C40.8607 50.6201 40.4407 50.4591 40.0297 50.2851C39.5989 50.0877 39.1548 49.9206 38.7007 49.7851C38.1429 49.6391 37.5684 49.5665 36.9917 49.5691C36.4184 49.5687 35.8473 49.6402 35.2917 49.7821C34.8379 49.9112 34.3933 50.0706 33.9607 50.2591C33.3437 50.5161 32.9407 50.6851 32.7057 50.7591C32.2326 50.8991 31.7452 50.9853 31.2527 51.0161C30.4773 51.0098 29.7201 50.7803 29.0717 50.3551L29.0917 50.3341ZM39.1527 23.2351C38.2636 23.7119 37.2599 23.9334 36.2527 23.8751C36.1241 22.8606 36.262 21.8301 36.6527 20.8851C36.9911 19.9821 37.4882 19.147 38.1207 18.4191C38.7924 17.6544 39.6048 17.026 40.5137 16.5681C41.3704 16.1039 42.3167 15.8291 43.2887 15.7621C43.4035 16.7898 43.2779 17.8302 42.9217 18.8011C42.5834 19.7395 42.0865 20.6128 41.4527 21.3831C40.8098 22.1508 40.0178 22.7802 39.1247 23.2331L39.1527 23.2351Z" fill="#AAB0B7"/>
</svg>
