<svg width="80" height="80" viewBox="0 0 80 80" fill="none" xmlns="http://www.w3.org/2000/svg">
<g id="Control_Left">
<circle id="Ellipse-15" cx="40" cy="40" r="40" fill="white"/>
<path id="icon-arrow-left" fill-rule="evenodd" clip-rule="evenodd" d="M51.7199 38.5391H32.6259L40.9799 30.1871C41.3066 29.8761 41.4915 29.4447 41.4915 28.9936C41.4915 28.5426 41.3066 28.1112 40.9799 27.8001V27.8001C40.6689 27.4735 40.2375 27.2886 39.7864 27.2886C39.3353 27.2886 38.904 27.4735 38.5929 27.8001L27.5109 38.8801C26.8274 39.661 26.8274 40.8273 27.5109 41.6081L38.5929 52.6871C38.904 53.0138 39.3353 53.1987 39.7864 53.1987C40.2375 53.1987 40.6689 53.0138 40.9799 52.6871V52.6871C41.3066 52.3761 41.4915 51.9447 41.4915 51.4936C41.4915 51.0426 41.3066 50.6112 40.9799 50.3001L32.6259 41.9461H51.7199C52.1783 41.9723 52.626 41.8015 52.9507 41.4769C53.2753 41.1523 53.446 40.7045 53.4199 40.2461V40.2461C53.4481 39.7866 53.2783 39.3369 52.9534 39.0107C52.6285 38.6845 52.1796 38.5128 51.7199 38.5391H51.7199Z" fill="#377DFF"/>
</g>
</svg>
