<svg width="80" height="80" viewBox="0 0 80 80" fill="none" xmlns="http://www.w3.org/2000/svg">
<circle cx="39.9995" cy="40" r="40" fill="#E5F1FF"/>
<path opacity="0.3" fill-rule="evenodd" clip-rule="evenodd" d="M21.9995 31V29C21.9995 28.4477 22.1948 27.9763 22.5853 27.5858C22.9758 27.1953 23.4472 27 23.9995 27H55.9995C56.5518 27 57.0232 27.1953 57.4137 27.5858C57.8042 27.9763 57.9995 28.4477 57.9995 29V50C57.9995 50.5523 57.8042 51.0237 57.4137 51.4142C57.0232 51.8047 56.5518 52 55.9995 52H23.9995C23.4472 52 22.9758 51.8047 22.5853 51.4142C22.1948 51.0237 21.9995 50.5523 21.9995 50V31Z" fill="#377DFF"/>
<rect x="21.9995" y="32" width="36" height="7" fill="#377DFF"/>
<path opacity="0.3" fill-rule="evenodd" clip-rule="evenodd" d="M47.9995 45.5V45C47.9995 44.7239 48.0971 44.4882 48.2924 44.2929C48.4877 44.0976 48.7234 44 48.9995 44H53.9995C54.2757 44 54.5114 44.0976 54.7066 44.2929C54.9019 44.4882 54.9995 44.7239 54.9995 45V46C54.9995 46.2761 54.9019 46.5118 54.7066 46.7071C54.5114 46.9024 54.2757 47 53.9995 47H48.9995C48.7234 47 48.4877 46.9024 48.2924 46.7071C48.0971 46.5118 47.9995 46.2761 47.9995 46V45.5Z" fill="#377DFF"/>
</svg>
