<svg width="80" height="80" viewBox="0 0 80 80" fill="none" xmlns="http://www.w3.org/2000/svg">
<g id="icon">
<circle id="Ellipse-8" cx="39.9995" cy="40" r="40" fill="#FFE3DE"/>
<g id="settings">
<path id="Path_143" opacity="0.3" fill-rule="evenodd" clip-rule="evenodd" d="M27.0123 31.7321H35.9123C37.3875 31.7321 38.5833 32.9279 38.5833 34.4031C38.5833 35.8782 37.3875 37.0741 35.9123 37.0741L27.0123 37.0741C25.5372 37.0741 24.3413 35.8782 24.3413 34.4031C24.3413 32.9279 25.5372 31.7321 27.0123 31.7321L27.0123 31.7321ZM43.0413 45.9761H51.9413C53.4158 45.977 54.6107 47.1726 54.6107 48.6471C54.6107 50.1216 53.4158 51.3172 51.9412 51.3181H43.0413C41.5668 51.3172 40.3719 50.1215 40.3719 48.647C40.372 47.1725 41.5669 45.9769 43.0414 45.9761H43.0413Z" fill="#FF715B"/>
<path id="Path_144" fill-rule="evenodd" clip-rule="evenodd" d="M49.2683 38.854C46.318 38.854 43.9263 36.4623 43.9263 33.512C43.9263 30.5617 46.318 28.17 49.2683 28.17C52.2186 28.17 54.6103 30.5617 54.6103 33.512C54.6103 36.4623 52.2186 38.854 49.2683 38.854H49.2683ZM29.6833 53.098C26.733 53.098 24.3413 50.7064 24.3413 47.756C24.3413 44.8057 26.733 42.414 29.6833 42.414C32.6336 42.414 35.0253 44.8057 35.0253 47.756C35.0253 50.7064 32.6336 53.098 29.6833 53.098L29.6833 53.098Z" fill="#FF715B"/>
</g>
</g>
</svg>
