<svg width="80" height="80" viewBox="0 0 80 80" fill="none" xmlns="http://www.w3.org/2000/svg">
<g id="icon">
<circle id="Ellipse-21" cx="40" cy="40" r="40" fill="#EAFAF3"/>
<g id="music">
<path id="Path_128" fill-rule="evenodd" clip-rule="evenodd" d="M31.0062 47.0749V28.9799C31.0053 28.1058 31.5722 27.3322 32.4061 27.0699L50.4172 22.0699C51.0251 21.8787 51.6877 21.9887 52.2013 22.366C52.7148 22.7432 53.0179 23.3427 53.0172 23.9799V46.9909V46.9909C53.0172 49.2009 50.7772 50.9909 48.0172 50.9909C45.2572 50.9909 43.0172 49.1989 43.0172 46.9909C43.0172 44.7829 45.2572 42.9909 48.0172 42.9909C48.3521 42.9908 48.6866 43.0175 49.0172 43.0709L49.0172 28.9799L35.0122 32.7319V50.9939V50.9939C35.0122 53.2039 32.7722 54.9939 30.0122 54.9939C27.2522 54.9939 25.0122 53.2019 25.0122 50.9939C25.0122 48.7859 27.2522 46.9939 30.0122 46.9939C30.3452 46.9944 30.6776 47.0215 31.0062 47.0749L31.0062 47.0749Z" fill="#2DCA8C"/>
</g>
</g>
</svg>
