<svg width="42" height="42" viewBox="0 0 42 42" fill="none" xmlns="http://www.w3.org/2000/svg">
<g id="iphone-x">
<path id="Path_134" opacity="0.3" fill-rule="evenodd" clip-rule="evenodd" d="M13.7401 5.08301C13.1702 5.08195 12.6234 5.30758 12.2201 5.71014C11.8167 6.11271 11.5901 6.65916 11.5901 7.22901V35.561C11.5901 36.132 11.8169 36.6786 12.2204 37.0812C12.6239 37.4838 13.1711 37.7093 13.7411 37.708L27.4731 37.708C28.6583 37.708 29.6191 36.7472 29.6191 35.562V7.22901C29.6191 6.04381 28.6583 5.08301 27.4731 5.08301H13.7401Z" fill="#FF715B"/>
<path id="Path_135" fill-rule="evenodd" clip-rule="evenodd" d="M13.7369 5.08308C12.5517 5.08308 11.5909 6.04388 11.5909 7.22908V35.5611C11.5909 36.7463 12.5517 37.7071 13.7369 37.7071H27.4739C28.6591 37.7071 29.6199 36.7463 29.6199 35.5611V7.22908C29.6199 6.04388 28.6591 5.08308 27.4739 5.08308L13.7369 5.08308ZM13.7369 2.50708H27.4739C30.0818 2.50708 32.1959 4.62119 32.1959 7.22908V35.5611C32.1959 38.169 30.0818 40.2831 27.4739 40.2831H13.7369C11.129 40.2831 9.01489 38.169 9.01489 35.5611V7.22908C9.01489 4.62119 11.129 2.50708 13.7369 2.50708V2.50708ZM16.3129 3.79508H24.8979C25.3723 3.79508 25.7569 4.17967 25.7569 4.65408V6.37008C25.7569 6.84449 25.3723 7.22908 24.8979 7.22908H16.3129C15.8385 7.22908 15.4539 6.84449 15.4539 6.37008L15.4539 4.65308C15.4544 4.17912 15.8388 3.79511 16.3128 3.79508L16.3129 3.79508Z" fill="#FF715B"/>
</g>
</svg>
