<svg width="80" height="80" viewBox="0 0 80 80" fill="none" xmlns="http://www.w3.org/2000/svg">
<g id="icon-3">
<circle id="Ellipse-10" cx="39.9995" cy="40" r="40" fill="#EAFAF3"/>
<g id="bag-2">
<path id="Path_138" opacity="0.3" fill-rule="evenodd" clip-rule="evenodd" d="M29.3057 23.9511H52.3527C53.3609 23.9494 54.1949 24.7355 54.2527 25.7421L55.8127 52.2651C55.8734 53.2728 55.5305 54.2633 54.8598 55.0179C54.1891 55.7724 53.2456 56.2291 52.2377 56.287C52.1631 56.2917 52.0887 56.2941 52.0147 56.2941H29.6447C27.546 56.2941 25.8447 54.5927 25.8447 52.494C25.8447 52.4194 25.8471 52.3451 25.8517 52.2711L27.4067 25.7421C27.4645 24.7359 28.2979 23.9499 29.3057 23.9511L29.3057 23.9511Z" fill="#2DCA8C"/>
<path id="Path_139" fill-rule="evenodd" clip-rule="evenodd" d="M31.3165 29.6581H35.1165C35.1165 32.8116 37.6729 35.3681 40.8265 35.3681C43.98 35.3681 46.5365 32.8116 46.5365 29.6581H50.3365C50.4071 33.1022 48.6101 36.3153 45.6387 38.0581C42.6672 39.8008 38.9857 39.8008 36.0143 38.0581C33.0428 36.3153 31.2458 33.1022 31.3165 29.6581L31.3165 29.6581Z" fill="#2DCA8C"/>
</g>
</g>
</svg>
