<svg width="40" height="40" viewBox="0 0 40 40" fill="none" xmlns="http://www.w3.org/2000/svg">
<g id="playlist-2">
<path id="Path_130" opacity="0.3" fill-rule="evenodd" clip-rule="evenodd" d="M19.3431 8.04077H31.1181C32.5111 8.04138 33.64 9.17075 33.64 10.5637C33.6401 11.9567 32.5112 13.0861 31.1183 13.0868H19.3431C17.9497 13.0868 16.8201 11.9572 16.8201 10.5638C16.8201 9.17036 17.9497 8.04077 19.3431 8.04077V8.04077ZM9.25115 28.2258H31.1181C32.5111 28.2264 33.64 29.3557 33.6401 30.7487C33.6401 32.1417 32.5112 33.2711 31.1183 33.2718H9.25115C7.85818 33.2712 6.72927 32.1418 6.72924 30.7488C6.72921 29.3559 7.85807 28.2264 9.25103 28.2258L9.25115 28.2258ZM9.25115 18.1338H31.1181C32.5116 18.1338 33.6411 19.2634 33.6411 20.6568C33.6411 22.0502 32.5116 23.1798 31.1181 23.1798H9.25115C8.34949 23.1802 7.51616 22.6994 7.06523 21.9186C6.6143 21.1378 6.61433 20.1757 7.06529 19.3949C7.51625 18.6141 8.34961 18.1333 9.25126 18.1338L9.25115 18.1338Z" fill="#2DCA8C"/>
<path id="Path_131" fill-rule="evenodd" clip-rule="evenodd" d="M8.12204 15.4549L12.957 11.2369C13.1396 11.0772 13.2443 10.8464 13.2443 10.6039C13.2443 10.3613 13.1396 10.1305 12.957 9.97085L8.12804 5.72685C7.88006 5.50623 7.52552 5.45209 7.223 5.58866C6.92048 5.72522 6.72658 6.02694 6.72804 6.35885L6.72804 14.8179C6.72792 15.1478 6.92066 15.4473 7.22095 15.5838C7.52123 15.7203 7.8736 15.6687 8.12211 15.4518L8.12204 15.4549Z" fill="#2DCA8C"/>
</g>
</svg>
