<svg width="39" height="39" viewBox="0 0 39 39" fill="none" xmlns="http://www.w3.org/2000/svg">
<g id="smile">
<path id="Rectangle_39" opacity="0.3" fill-rule="evenodd" clip-rule="evenodd" d="M3 19.5C3 14.9437 4.61091 11.0546 7.83274 7.83274C11.0546 4.61091 14.9437 3 19.5 3C24.0564 3 27.9454 4.61091 31.1673 7.83274C34.3891 11.0546 36 14.9437 36 19.5C36 24.0564 34.3891 27.9454 31.1673 31.1673C27.9454 34.3891 24.0564 36 19.5 36C14.9437 36 11.0546 34.3891 7.83274 31.1673C4.61091 27.9454 3 24.0564 3 19.5V19.5Z" fill="#377DFF"/>
<path id="Path_129" fill-rule="evenodd" clip-rule="evenodd" d="M10.0738 23.572C9.57343 22.8214 9.77625 21.8073 10.5268 21.307C11.2774 20.8066 12.2914 21.0094 12.7918 21.76C14.6818 24.595 16.9118 25.933 19.5998 25.933C22.2878 25.933 24.5178 24.595 26.4078 21.76C26.9082 21.0094 27.9223 20.8066 28.6728 21.307C29.4234 21.8073 29.6262 22.8214 29.1258 23.572C26.6598 27.272 23.4448 29.199 19.5998 29.199C15.7548 29.199 12.5398 27.271 10.0738 23.572V23.572Z" fill="#377DFF"/>
</g>
</svg>
