<svg width="74" height="74" viewBox="0 0 74 74" fill="none" xmlns="http://www.w3.org/2000/svg">
<circle cx="36.9995" cy="37" r="37" fill="#FFE3DE"/>
<path opacity="0.3" fill-rule="evenodd" clip-rule="evenodd" d="M23.8877 23.5601L37.0287 21.0961C37.448 21.0175 37.8784 21.0175 38.2977 21.0961L51.4397 23.5601V39.5451C51.4414 44.5936 48.8398 49.2912 44.5556 51.9707L38.5767 55.7081C38.0183 56.0567 37.3101 56.0567 36.7517 55.7081L30.7767 51.9731C26.4912 49.2952 23.8877 44.5984 23.8877 39.5451L23.8877 23.5601Z" fill="#FF715B"/>
<path fill-rule="evenodd" clip-rule="evenodd" d="M36.2435 42.0698C35.807 42.0647 35.3909 41.8846 35.0885 41.5698L31.7885 38.2698C31.1793 37.6272 31.1928 36.6163 31.8189 35.9903C32.445 35.3642 33.4559 35.3507 34.0985 35.9598L36.2435 38.1048L41.6925 32.6698C42.3351 32.0607 43.3459 32.0742 43.972 32.7003C44.5981 33.3264 44.6116 34.3372 44.0025 34.9798L37.4025 41.5798C37.0974 41.8919 36.6799 42.0684 36.2435 42.0698L36.2435 42.0698Z" fill="#FF715B"/>
</svg>
